# xmcd CD database file
# Copyright (C) 1993-1998 Ti Kan
#
# Track frame offsets:
#  150
#  10275
#  24441
#  32523
#  44027
#  56477
#  66912
#  77068
#  96821
#  107278
#  116642
#  133088
#  144921
#  154686
#
# Disc length: 2257 seconds
#
# Revision: 1
# Processed by: cddbd v1.4b41PL1 Copyright (c) Steve Scherf et al.
# Submitted via: CDWizzard Release:4.31
#
DISCID=b108cf0e
DTITLE=Peggy Lee - Fever
DYEAR=1900
DGENRE=
TTITLE0=My man
TTITLE1=Days of wine and roses
TTITLE2=You always hurt the one you love
TTITLE3=The lady is a tramp
TTITLE4=Mack the knife
TTITLE5=Taste of honey
TTITLE6=You're nobody 'till somebody loves you
TTITLE7=Is that all there is
TTITLE8=It's been a long time
TTITLE9=When in Rome
TTITLE10=(There is) no greater love
TTITLE11=You don't know me
TTITLE12=I'm a woman
TTITLE13=The party's over
EXTD=
EXTT0=
EXTT1=
EXTT2=
EXTT3=
EXTT4=
EXTT5=
EXTT6=
EXTT7=
EXTT8=
EXTT9=
EXTT10=
EXTT11=
EXTT12=
EXTT13=
PLAYORDER=
